<svg width="20" height="20" viewBox="0 0 20 20" fill="none" xmlns="http://www.w3.org/2000/svg">
<path d="M16.2493 11.25C16.2509 11.5048 16.1734 11.7539 16.0276 11.9629C15.8819 12.1719 15.6749 12.3306 15.4352 12.4172L11.4001 13.9016L9.91568 17.9336C9.82777 18.1724 9.66874 18.3785 9.46002 18.5241C9.25131 18.6697 9.00296 18.7477 8.74849 18.7477C8.49402 18.7477 8.24567 18.6697 8.03696 18.5241C7.82824 18.3785 7.6692 18.1724 7.5813 17.9336L6.09302 13.9062L2.06021 12.4219C1.8214 12.334 1.61531 12.1749 1.46973 11.9662C1.32415 11.7575 1.24609 11.5092 1.24609 11.2547C1.24609 11.0002 1.32415 10.7519 1.46973 10.5432C1.61531 10.3344 1.8214 10.1754 2.06021 10.0875L6.09536 8.60313L7.57974 4.57109C7.66764 4.33229 7.82668 4.12619 8.03539 3.98061C8.24411 3.83504 8.49246 3.75698 8.74693 3.75698C9.0014 3.75698 9.24974 3.83504 9.45846 3.98061C9.66717 4.12619 9.82621 4.33229 9.91411 4.57109L11.3985 8.60625L15.4305 10.0906C15.6698 10.176 15.8769 10.3331 16.0235 10.5407C16.17 10.7482 16.2489 10.9959 16.2493 11.25ZM11.8743 3.75H13.1243V5C13.1243 5.16576 13.1901 5.32473 13.3073 5.44194C13.4245 5.55915 13.5835 5.625 13.7493 5.625C13.915 5.625 14.074 5.55915 14.1912 5.44194C14.3084 5.32473 14.3743 5.16576 14.3743 5V3.75H15.6243C15.79 3.75 15.949 3.68415 16.0662 3.56694C16.1834 3.44973 16.2493 3.29076 16.2493 3.125C16.2493 2.95924 16.1834 2.80027 16.0662 2.68306C15.949 2.56585 15.79 2.5 15.6243 2.5H14.3743V1.25C14.3743 1.08424 14.3084 0.925268 14.1912 0.808058C14.074 0.690848 13.915 0.625 13.7493 0.625C13.5835 0.625 13.4245 0.690848 13.3073 0.808058C13.1901 0.925268 13.1243 1.08424 13.1243 1.25V2.5H11.8743C11.7085 2.5 11.5495 2.56585 11.4323 2.68306C11.3151 2.80027 11.2493 2.95924 11.2493 3.125C11.2493 3.29076 11.3151 3.44973 11.4323 3.56694C11.5495 3.68415 11.7085 3.75 11.8743 3.75ZM18.7493 6.25H18.1243V5.625C18.1243 5.45924 18.0584 5.30027 17.9412 5.18306C17.824 5.06585 17.665 5 17.4993 5C17.3335 5 17.1745 5.06585 17.0573 5.18306C16.9401 5.30027 16.8743 5.45924 16.8743 5.625V6.25H16.2493C16.0835 6.25 15.9245 6.31585 15.8073 6.43306C15.6901 6.55027 15.6243 6.70924 15.6243 6.875C15.6243 7.04076 15.6901 7.19973 15.8073 7.31694C15.9245 7.43415 16.0835 7.5 16.2493 7.5H16.8743V8.125C16.8743 8.29076 16.9401 8.44973 17.0573 8.56694C17.1745 8.68415 17.3335 8.75 17.4993 8.75C17.665 8.75 17.824 8.68415 17.9412 8.56694C18.0584 8.44973 18.1243 8.29076 18.1243 8.125V7.5H18.7493C18.915 7.5 19.074 7.43415 19.1912 7.31694C19.3084 7.19973 19.3743 7.04076 19.3743 6.875C19.3743 6.70924 19.3084 6.55027 19.1912 6.43306C19.074 6.31585 18.915 6.25 18.7493 6.25Z" fill="#FE8B4C"/>
</svg>
