<svg width="13" height="12" viewBox="0 0 13 12" fill="none" xmlns="http://www.w3.org/2000/svg">
<g clip-path="url(#clip0_3610_125618)">
<path d="M12.5 6C12.5 2.68631 9.81369 0 6.5 0C3.18631 0 0.5 2.68631 0.5 6C0.5 8.99475 2.69412 11.477 5.5625 11.9271V7.73438H4.03906V6H5.5625V4.67813C5.5625 3.17438 6.45828 2.34375 7.82881 2.34375C8.48525 2.34375 9.17188 2.46094 9.17188 2.46094V3.9375H8.41531C7.66995 3.9375 7.4375 4.40002 7.4375 4.87453V6H9.10156L8.83555 7.73438H7.4375V11.9271C10.3059 11.477 12.5 8.9948 12.5 6Z" fill="#6B7280"/>
<path d="M8.83555 7.73438L9.10156 6H7.4375V4.87453C7.4375 4.39997 7.66995 3.9375 8.41531 3.9375H9.17188V2.46094C9.17188 2.46094 8.48525 2.34375 7.82877 2.34375C6.45828 2.34375 5.5625 3.17438 5.5625 4.67813V6H4.03906V7.73438H5.5625V11.9271C5.87263 11.9757 6.18608 12.0001 6.5 12C6.81392 12.0001 7.12737 11.9757 7.4375 11.9271V7.73438H8.83555Z" fill="white"/>
</g>
<defs>
<clipPath id="clip0_3610_125618">
<rect width="12" height="12" fill="white" transform="translate(0.5)"/>
</clipPath>
</defs>
</svg>
