<svg width="17" height="17" viewBox="0 0 17 17" fill="none" xmlns="http://www.w3.org/2000/svg">
<path d="M3.83203 5.08789H2.9987C2.55667 5.08789 2.13275 5.26349 1.82019 5.57605C1.50763 5.88861 1.33203 6.31253 1.33203 6.75456V14.2546C1.33203 14.6966 1.50763 15.1205 1.82019 15.4331C2.13275 15.7456 2.55667 15.9212 2.9987 15.9212H10.4987C10.9407 15.9212 11.3646 15.7456 11.6772 15.4331C11.9898 15.1205 12.1654 14.6966 12.1654 14.2546V13.4212" stroke="#484848" stroke-width="2" stroke-linecap="round" stroke-linejoin="round"/>
<path d="M11.3333 3.42262L13.8333 5.92261M14.9875 4.74345C15.3157 4.41524 15.5001 3.9701 15.5001 3.50595C15.5001 3.0418 15.3157 2.59665 14.9875 2.26845C14.6593 1.94024 14.2142 1.75586 13.75 1.75586C13.2858 1.75586 12.8407 1.94024 12.5125 2.26845L5.5 9.25595V11.7559H8L14.9875 4.74345Z" stroke="#484848" stroke-width="2" stroke-linecap="round" stroke-linejoin="round"/>
</svg>
