<svg width="12" height="12" viewBox="0 0 12 12" fill="none" xmlns="http://www.w3.org/2000/svg">
<g clip-path="url(#clip0_3610_125624)">
<path d="M10.875 0.281293H1.125C0.903779 0.279042 0.6907 0.364641 0.532518 0.519309C0.374335 0.673976 0.28397 0.885078 0.28125 1.10629V10.8957C0.284462 11.1166 0.375043 11.3272 0.533172 11.4814C0.691301 11.6357 0.9041 11.721 1.125 11.7188H10.875C11.0962 11.7205 11.3092 11.6347 11.4673 11.4799C11.6254 11.3251 11.7158 11.1141 11.7188 10.8929V1.10348C11.7148 0.882914 11.624 0.672819 11.466 0.518861C11.308 0.364904 11.0956 0.279529 10.875 0.281293Z" fill="#6B7280"/>
<path d="M1.97436 4.56836H3.67217V10.0312H1.97436V4.56836ZM2.82373 1.84961C3.01846 1.84961 3.20882 1.90737 3.37072 2.01557C3.53262 2.12378 3.65879 2.27757 3.73326 2.4575C3.80774 2.63742 3.82718 2.8354 3.78912 3.02637C3.75106 3.21735 3.65722 3.39274 3.51946 3.53037C3.3817 3.668 3.20621 3.76168 3.0152 3.79956C2.82419 3.83744 2.62623 3.81781 2.44638 3.74316C2.26652 3.66851 2.11285 3.54219 2.0048 3.38019C1.89675 3.21819 1.83917 3.02778 1.83936 2.83305C1.8396 2.57214 1.94342 2.322 2.128 2.13759C2.31258 1.95319 2.56282 1.84961 2.82373 1.84961ZM4.73717 4.56836H6.36467V5.31836H6.38717C6.61404 4.88898 7.16717 4.43617 7.99311 4.43617C9.71248 4.43242 10.0312 5.56398 10.0312 7.03117V10.0312H8.33342V7.37336C8.33342 6.74055 8.32217 5.92586 7.45123 5.92586C6.58029 5.92586 6.43217 6.61586 6.43217 7.33211V10.0312H4.73717V4.56836Z" fill="white"/>
</g>
<defs>
<clipPath id="clip0_3610_125624">
<rect width="12" height="12" fill="white"/>
</clipPath>
</defs>
</svg>
