<svg width="20" height="21" viewBox="0 0 20 21" fill="none" xmlns="http://www.w3.org/2000/svg">
<path d="M15 18.5905C14.3056 18.5905 13.7153 18.3474 13.2292 17.8613C12.7431 17.3752 12.5 16.7849 12.5 16.0905C12.5 15.9933 12.5069 15.8924 12.5208 15.788C12.5347 15.6835 12.5556 15.5899 12.5833 15.5072L6.70833 12.0905C6.47222 12.2988 6.20833 12.4622 5.91667 12.5805C5.625 12.6988 5.31944 12.7577 5 12.7572C4.30556 12.7572 3.71528 12.5141 3.22917 12.028C2.74306 11.5419 2.5 10.9516 2.5 10.2572C2.5 9.56272 2.74306 8.97244 3.22917 8.48633C3.71528 8.00022 4.30556 7.75716 5 7.75716C5.31944 7.75716 5.625 7.81633 5.91667 7.93466C6.20833 8.05299 6.47222 8.21605 6.70833 8.42383L12.5833 5.00716C12.5556 4.92383 12.5347 4.83022 12.5208 4.72633C12.5069 4.62244 12.5 4.52161 12.5 4.42383C12.5 3.72938 12.7431 3.13911 13.2292 2.65299C13.7153 2.16688 14.3056 1.92383 15 1.92383C15.6944 1.92383 16.2847 2.16688 16.7708 2.65299C17.2569 3.13911 17.5 3.72938 17.5 4.42383C17.5 5.11827 17.2569 5.70855 16.7708 6.19466C16.2847 6.68077 15.6944 6.92383 15 6.92383C14.6806 6.92383 14.375 6.86494 14.0833 6.74716C13.7917 6.62938 13.5278 6.46605 13.2917 6.25716L7.41667 9.67383C7.44444 9.75716 7.46528 9.85105 7.47917 9.95549C7.49306 10.0599 7.5 10.1605 7.5 10.2572C7.5 10.3544 7.49306 10.4552 7.47917 10.5597C7.46528 10.6641 7.44444 10.7577 7.41667 10.8405L13.2917 14.2572C13.5278 14.0488 13.7917 13.8858 14.0833 13.768C14.375 13.6502 14.6806 13.5911 15 13.5905C15.6944 13.5905 16.2847 13.8336 16.7708 14.3197C17.2569 14.8058 17.5 15.3961 17.5 16.0905C17.5 16.7849 17.2569 17.3752 16.7708 17.8613C16.2847 18.3474 15.6944 18.5905 15 18.5905Z" fill="#FE8B4C"/>
</svg>
