<svg width="12" height="12" viewBox="0 0 12 12" fill="none" xmlns="http://www.w3.org/2000/svg">
<g clip-path="url(#clip0_3610_125615)">
<path d="M0.256289 5.92815C0.256008 6.93638 0.521508 7.92085 1.02635 8.78857L0.208008 11.7533L3.26576 10.9578C4.11149 11.4146 5.05907 11.654 6.02201 11.6541H6.02454C9.20337 11.6541 11.791 9.0874 11.7924 5.93266C11.793 4.40396 11.1935 2.96647 10.1044 1.88498C9.01554 0.803589 7.56734 0.207729 6.02431 0.207031C2.8451 0.207031 0.257648 2.77354 0.256336 5.92815" fill="#6B7280"/>
<path d="M0.0501563 5.92633C0.0498281 6.97084 0.324844 7.99051 0.847687 8.8893L0 11.9603L3.16739 11.1363C4.04011 11.6084 5.0227 11.8573 6.02255 11.8577H6.02512C9.318 11.8577 11.9986 9.19874 12 5.93107C12.0006 4.34744 11.3796 2.85828 10.2516 1.73805C9.12342 0.617953 7.62342 0.000651163 6.02512 0C2.73169 0 0.0514688 2.6586 0.0501563 5.92633ZM1.93645 8.73451L1.81819 8.54823C1.32103 7.76386 1.05862 6.85744 1.059 5.9267C1.06003 3.21065 3.28772 1.00093 6.027 1.00093C7.35356 1.00149 8.60025 1.5146 9.53794 2.44558C10.4756 3.37665 10.9915 4.61433 10.9912 5.9307C10.99 8.64674 8.76225 10.8567 6.02512 10.8567H6.02316C5.13192 10.8563 4.25784 10.6188 3.49556 10.17L3.31416 10.0633L1.43456 10.5522L1.93645 8.73451Z" fill="#6B7280"/>
<path d="M4.53191 3.44885C4.42007 3.2022 4.30237 3.19723 4.19601 3.1929C4.10891 3.18918 4.00935 3.18946 3.90988 3.18946C3.81032 3.18946 3.64855 3.22662 3.51182 3.37476C3.37495 3.52304 2.98926 3.88136 2.98926 4.61016C2.98926 5.33899 3.52424 6.04332 3.59882 6.14225C3.67349 6.24099 4.63162 7.78443 6.14905 8.3782C7.41018 8.87164 7.66682 8.7735 7.94052 8.74876C8.21427 8.72411 8.82384 8.39053 8.9482 8.04462C9.07265 7.69876 9.07265 7.40229 9.03534 7.34034C8.99802 7.27862 8.89846 7.24155 8.74916 7.1675C8.59982 7.09341 7.86585 6.73504 7.72902 6.6856C7.59215 6.6362 7.49263 6.61155 7.39307 6.75988C7.29351 6.90797 7.00762 7.24155 6.92048 7.34034C6.83343 7.43936 6.74629 7.45169 6.59704 7.3776C6.44765 7.30327 5.96685 7.14704 5.39643 6.64243C4.95262 6.24978 4.65299 5.7649 4.5659 5.61657C4.4788 5.46848 4.55657 5.3882 4.63143 5.31439C4.69851 5.24802 4.78077 5.14141 4.85549 5.05495C4.92993 4.96843 4.95477 4.90671 5.00455 4.80792C5.05438 4.70904 5.02945 4.62253 4.99218 4.54843C4.95477 4.47434 4.66466 3.74174 4.53191 3.44885Z" fill="white"/>
</g>
<defs>
<clipPath id="clip0_3610_125615">
<rect width="12" height="12" fill="white"/>
</clipPath>
</defs>
</svg>
