<svg width="10" height="10" viewBox="0 0 10 10" fill="none" xmlns="http://www.w3.org/2000/svg">
<path d="M8.80504 0.00275002L8.85363 0L8.91321 0.00366662L8.95446 0.011L9.01083 0.0270417L9.05988 0.048125L9.10571 0.07425L9.14696 0.104958L9.18454 0.139333L9.20837 0.166375L9.24596 0.219542L9.26979 0.263542C9.29118 0.309375 9.30493 0.357653 9.31104 0.408375L9.31333 0.456958C9.31333 0.491486 9.30967 0.525097 9.30233 0.557792L9.28629 0.614167L6.29246 8.89946C6.23571 9.02301 6.14469 9.12768 6.03022 9.20104C5.91575 9.2744 5.78263 9.31338 5.64667 9.31333C5.52424 9.31359 5.40382 9.2822 5.2971 9.22221C5.19038 9.16223 5.10097 9.07568 5.03754 8.97096L5.00775 8.91275L3.47142 5.841L0.414333 4.312C0.301217 4.26027 0.203666 4.17974 0.131438 4.07848C0.0592086 3.97721 0.0148334 3.85876 0.00275002 3.73496L0 3.66667C0 3.41 0.137958 3.17533 0.385458 3.03875L0.449625 3.00667L8.70742 0.02475L8.756 0.011L8.80504 0.00275002Z" fill="#E5E7EB"/>
</svg>
